<?xml version="1.0" encoding="UTF-8" standalone="no"?>
<!DOCTYPE svg PUBLIC "-//W3C//DTD SVG 1.1//EN" "http://www.w3.org/Graphics/SVG/1.1/DTD/svg11.dtd">
<svg version="1.1" xmlns="http://www.w3.org/2000/svg" xmlns:xlink="http://www.w3.org/1999/xlink" preserveAspectRatio="xMidYMid meet" viewBox="0 0 640 640" width="535" height="526"><defs><path d="M410.97 359.57C409.86 359.57 400.93 359.57 399.81 359.57C399.82 359.43 399.84 359.28 399.85 359.12C400.59 349.33 404.88 289.78 399.76 279.59C400.2 280.42 414.95 307.78 414.09 338.88C413.93 345.75 412.92 352.56 411.1 359.12C411.06 359.27 411.02 359.41 410.97 359.57Z" id="gL2GszrKb"></path><path d="M410.97 359.57C409.86 359.57 400.93 359.57 399.81 359.57C399.82 359.43 399.84 359.28 399.85 359.12C400.59 349.33 404.88 289.78 399.76 279.59C400.2 280.42 414.95 307.78 414.09 338.88C413.93 345.75 412.92 352.56 411.1 359.12C411.06 359.27 411.02 359.41 410.97 359.57Z" id="a3PasQb5pd"></path><path d="M404.59 359.57C404.65 359.44 404.73 359.29 404.81 359.12C406.2 356.26 410.29 347.72 414.09 338.88C418.17 329.36 421.91 319.49 421.6 315.92C421.7 316.73 424.53 341.28 413.25 359.12C413.16 359.27 413.06 359.42 412.96 359.57C412.13 359.57 405.43 359.57 404.59 359.57Z" id="b3JxJuJGzV"></path><path d="M404.59 359.57C404.65 359.44 404.73 359.29 404.81 359.12C406.2 356.26 410.29 347.72 414.09 338.88C418.17 329.36 421.91 319.49 421.6 315.92C421.7 316.73 424.53 341.28 413.25 359.12C413.16 359.27 413.06 359.42 412.96 359.57C412.13 359.57 405.43 359.57 404.59 359.57Z" id="e3XHPkdNa3"></path><path d="M444.25 358.7C444.25 359.42 444.25 359.82 444.25 359.9C444.25 359.9 444.25 359.9 444.25 359.9C251.74 359.9 144.79 359.9 123.4 359.9C123.4 359.9 123.4 359.9 123.4 359.9C123.4 359.18 123.4 358.78 123.4 358.7C123.4 358.7 123.4 358.7 123.4 358.7C315.91 358.7 422.86 358.7 444.25 358.7C444.25 358.7 444.25 358.7 444.25 358.7Z" id="b1hWgmJGKu"></path><path d="M444.25 358.7C444.25 359.42 444.25 359.82 444.25 359.9C444.25 359.9 444.25 359.9 444.25 359.9C251.74 359.9 144.79 359.9 123.4 359.9C123.4 359.9 123.4 359.9 123.4 359.9C123.4 359.18 123.4 358.78 123.4 358.7C123.4 358.7 123.4 358.7 123.4 358.7C315.91 358.7 422.86 358.7 444.25 358.7C444.25 358.7 444.25 358.7 444.25 358.7Z" id="blkYqUDnL"></path><path d="M374.36 368.55C371.33 358.12 369.63 352.33 369.3 351.17C372.82 339.59 379.02 333.91 390.34 339.58C392.29 340.96 407.86 352.03 409.81 353.41C413.66 356.15 415.91 361.07 415.66 366.26C415.66 366.26 415.66 366.26 415.66 366.26C415.41 371.46 412.7 376.1 408.59 378.33C386.8 390.15 359.02 394.67 328.77 396.19C328.98 394.23 329.5 389.33 330.33 381.48C339.14 378.9 369.96 369.85 374.36 368.55Z" id="e2bDa5wt7o"></path><path d="M374.36 368.55C371.33 358.12 369.63 352.33 369.3 351.17C372.82 339.59 379.02 333.91 390.34 339.58C392.29 340.96 407.86 352.03 409.81 353.41C413.66 356.15 415.91 361.07 415.66 366.26C415.66 366.26 415.66 366.26 415.66 366.26C415.41 371.46 412.7 376.1 408.59 378.33C386.8 390.15 359.02 394.67 328.77 396.19C328.98 394.23 329.5 389.33 330.33 381.48C339.14 378.9 369.96 369.85 374.36 368.55Z" id="f5Ym9pwJ30"></path><path d="M305.11 401.4C302.13 402.09 299.22 399.89 298.61 396.48C298.55 396.15 298.52 395.82 298.5 395.49C298.5 395.49 298.5 395.49 298.5 395.49C298.43 393.42 299.25 391.43 300.7 390.19C302.69 388.47 318.68 374.68 320.68 372.96C324.22 369.91 329.17 370.25 332.37 373.77C332.86 374.31 336.85 378.7 337.34 379.25C333.78 381.78 331.14 385.57 329.55 390.84C332.98 393 333.63 396.27 331.5 400.65C330.59 400.5 326.05 399.76 317.86 398.42C309.93 400.27 305.67 401.27 305.11 401.4Z" id="c36pWMN8Gx"></path><path d="M305.11 401.4C302.13 402.09 299.22 399.89 298.61 396.48C298.55 396.15 298.52 395.82 298.5 395.49C298.5 395.49 298.5 395.49 298.5 395.49C298.43 393.42 299.25 391.43 300.7 390.19C302.69 388.47 318.68 374.68 320.68 372.96C324.22 369.91 329.17 370.25 332.37 373.77C332.86 374.31 336.85 378.7 337.34 379.25C333.78 381.78 331.14 385.57 329.55 390.84C332.98 393 333.63 396.27 331.5 400.65C330.59 400.5 326.05 399.76 317.86 398.42C309.93 400.27 305.67 401.27 305.11 401.4Z" id="a1g3OPzvit"></path><path d="M331.92 231.78C331.92 239.74 337.56 246.2 344.53 246.2C351.5 246.2 357.14 239.74 357.14 231.78C357.14 223.8 351.5 217.34 344.53 217.34C337.56 217.34 331.92 223.8 331.92 231.78Z" id="b1PKg5mkaq"></path><path d="M331.92 231.78C331.92 239.74 337.56 246.2 344.53 246.2C351.5 246.2 357.14 239.74 357.14 231.78C357.14 223.8 351.5 217.34 344.53 217.34C337.56 217.34 331.92 223.8 331.92 231.78Z" id="b5OUvqwW0"></path><path d="M335.99 241.29C337.79 241.04 352.29 239.08 354.1 238.83C353.21 244.47 357.78 252.03 364.23 260.23C358.58 262.95 338.81 272.47 335.99 273.82C338.28 260.63 339.42 248.63 335.99 241.29Z" id="d1RFFeJjyE"></path><path d="M335.99 241.29C337.79 241.04 352.29 239.08 354.1 238.83C353.21 244.47 357.78 252.03 364.23 260.23C358.58 262.95 338.81 272.47 335.99 273.82C338.28 260.63 339.42 248.63 335.99 241.29Z" id="h2NeE2mSwx"></path><path d="M305.78 394.85C299.34 364.11 296.04 335.05 297.48 308.52C297.9 300.48 303.81 294.25 310.85 294.42C310.85 294.42 310.85 294.42 310.85 294.42C314.11 294.51 317.22 295.98 319.58 298.55C320.95 300.03 331.83 311.88 333.19 313.36C339.26 319.91 343.97 327.94 346.98 336.84C350.83 348.38 349.44 354.86 340.24 353.76C334.5 353.03 329.21 349.81 325.47 344.77C324.8 343.89 321.49 339.48 315.53 331.55C315.58 335.83 315.84 357.23 316.3 395.75C309.76 395.19 306.25 394.89 305.78 394.85Z" id="d3yKoJ32Cu"></path><path d="M305.78 394.85C299.34 364.11 296.04 335.05 297.48 308.52C297.9 300.48 303.81 294.25 310.85 294.42C310.85 294.42 310.85 294.42 310.85 294.42C314.11 294.51 317.22 295.98 319.58 298.55C320.95 300.03 331.83 311.88 333.19 313.36C339.26 319.91 343.97 327.94 346.98 336.84C350.83 348.38 349.44 354.86 340.24 353.76C334.5 353.03 329.21 349.81 325.47 344.77C324.8 343.89 321.49 339.48 315.53 331.55C315.58 335.83 315.84 357.23 316.3 395.75C309.76 395.19 306.25 394.89 305.78 394.85Z" id="bbgQyYdoG"></path><path d="M299.77 421.34C299.82 420.44 299.97 419.54 300.23 418.69C300.36 418.23 301.05 415.93 302.28 411.79C303.21 401.36 303.74 395.57 303.84 394.41C306.23 388.8 309.64 389.64 313.57 393.97C316.08 393.69 316.62 390.82 316.3 386.83C317.09 388.05 323.41 397.78 324.2 399C325.58 401.12 325.84 403.93 324.88 406.33C324.09 408.32 317.73 424.28 316.94 426.28C315.38 430.17 311.89 432.56 308.16 432.28C308.16 432.28 308.16 432.28 308.16 432.28C303.2 431.91 299.44 427.01 299.77 421.34Z" id="aCIFOWMpf"></path><path d="M299.77 421.34C299.82 420.44 299.97 419.54 300.23 418.69C300.36 418.23 301.05 415.93 302.28 411.79C303.21 401.36 303.74 395.57 303.84 394.41C306.23 388.8 309.64 389.64 313.57 393.97C316.08 393.69 316.62 390.82 316.3 386.83C317.09 388.05 323.41 397.78 324.2 399C325.58 401.12 325.84 403.93 324.88 406.33C324.09 408.32 317.73 424.28 316.94 426.28C315.38 430.17 311.89 432.56 308.16 432.28C308.16 432.28 308.16 432.28 308.16 432.28C303.2 431.91 299.44 427.01 299.77 421.34Z" id="a1TLJGd8tX"></path><path d="M374.36 368.11C373.12 367.3 363.14 360.89 361.89 360.09C347.25 366.28 336.98 357.79 325.85 345.15C333.13 331.27 329.91 313.25 334.43 313.5C338.03 314.79 356.01 321.25 388.39 332.89C388.62 333.56 390.5 338.91 390.73 339.58C399.77 346.12 405.42 350.2 407.68 351.84C393.26 361.2 388.74 361.47 374.36 368.11Z" id="i1mHR5Sl4h"></path><path d="M374.36 368.11C373.12 367.3 363.14 360.89 361.89 360.09C347.25 366.28 336.98 357.79 325.85 345.15C333.13 331.27 329.91 313.25 334.43 313.5C338.03 314.79 356.01 321.25 388.39 332.89C388.62 333.56 390.5 338.91 390.73 339.58C399.77 346.12 405.42 350.2 407.68 351.84C393.26 361.2 388.74 361.47 374.36 368.11Z" id="e1iKot0SBC"></path><path d="M333.26 314.84C332.1 309.48 322.82 266.62 321.66 261.27C321.1 258.87 322.34 256.43 324.43 255.79C324.51 255.77 324.59 255.75 324.67 255.73C325.57 255.52 330.05 254.5 338.12 252.65C338.57 253.45 340.77 257.47 344.75 264.68C352.7 256.66 357.11 252.2 358 251.31C366.44 254.47 371.13 256.23 372.07 256.57C375.88 258 378.69 261.71 379.39 266.23C381.58 280.46 388.15 323.13 390.34 337.35C371.29 346.78 350.76 336.8 333.26 314.84Z" id="atEVwgNlv"></path><path d="M333.26 314.84C332.1 309.48 322.82 266.62 321.66 261.27C321.1 258.87 322.34 256.43 324.43 255.79C324.51 255.77 324.59 255.75 324.67 255.73C325.57 255.52 330.05 254.5 338.12 252.65C338.57 253.45 340.77 257.47 344.75 264.68C352.7 256.66 357.11 252.2 358 251.31C366.44 254.47 371.13 256.23 372.07 256.57C375.88 258 378.69 261.71 379.39 266.23C381.58 280.46 388.15 323.13 390.34 337.35C371.29 346.78 350.76 336.8 333.26 314.84Z" id="b1NjB9w43q"></path><path d="M356.09 372.61C356.37 371.78 356.77 371 357.27 370.32C357.87 369.52 360.84 365.51 366.18 358.3C366.81 358.71 371.79 361.91 372.41 362.32C370.49 371.3 369.42 376.29 369.21 377.29C368.3 381.51 364.57 384.1 360.88 383.06C360.61 382.98 360.34 382.89 360.08 382.77C360.08 382.77 360.08 382.77 360.08 382.77C356.53 381.22 354.74 376.67 356.09 372.61Z" id="eCmuicNIH"></path><path d="M356.09 372.61C356.37 371.78 356.77 371 357.27 370.32C357.87 369.52 360.84 365.51 366.18 358.3C366.81 358.71 371.79 361.91 372.41 362.32C370.49 371.3 369.42 376.29 369.21 377.29C368.3 381.51 364.57 384.1 360.88 383.06C360.61 382.98 360.34 382.89 360.08 382.77C360.08 382.77 360.08 382.77 360.08 382.77C356.53 381.22 354.74 376.67 356.09 372.61Z" id="f5gwIk9jn"></path><path d="M356.09 370.83C356.37 369.99 356.77 369.22 357.27 368.54C357.87 367.74 360.84 363.73 366.18 356.52C366.81 356.92 371.79 360.13 372.41 360.53C370.49 369.52 369.42 374.5 369.21 375.51C368.3 379.72 364.57 382.31 360.88 381.28C360.61 381.19 360.34 381.1 360.08 380.99C360.08 380.99 360.08 380.99 360.08 380.99C356.53 379.44 354.74 374.89 356.09 370.83Z" id="e2mHMPdG"></path><path d="M356.09 370.83C356.37 369.99 356.77 369.22 357.27 368.54C357.87 367.74 360.84 363.73 366.18 356.52C366.81 356.92 371.79 360.13 372.41 360.53C370.49 369.52 369.42 374.5 369.21 375.51C368.3 379.72 364.57 382.31 360.88 381.28C360.61 381.19 360.34 381.1 360.08 380.99C360.08 380.99 360.08 380.99 360.08 380.99C356.53 379.44 354.74 374.89 356.09 370.83Z" id="a3LG9fncz0"></path><path d="M378.26 315.51C375.22 280.47 373.53 261 373.19 257.11C375.97 259.09 377.51 260.19 377.81 260.41C382.83 263.99 386.33 269.77 387.53 276.4C388.27 280.57 394.27 314.01 395.01 318.18C391.73 337.44 386.27 354.38 373.97 364.1C372.72 363.15 369.61 360.77 364.62 356.96C366.44 351.44 370.99 337.62 378.26 315.51Z" id="bLSh9yFLj"></path><path d="M378.26 315.51C375.22 280.47 373.53 261 373.19 257.11C375.97 259.09 377.51 260.19 377.81 260.41C382.83 263.99 386.33 269.77 387.53 276.4C388.27 280.57 394.27 314.01 395.01 318.18C391.73 337.44 386.27 354.38 373.97 364.1C372.72 363.15 369.61 360.77 364.62 356.96C366.44 351.44 370.99 337.62 378.26 315.51Z" id="gqK8OleVW"></path><path d="M369.16 340.29L368.33 297.9L368.33 297.9L373 324.65L369.16 340.29Z" id="a2rtezlJXr"></path><path d="M369.16 340.29L368.33 297.9L368.33 297.9L373 324.65L369.16 340.29Z" id="a4pBqeypeb"></path><path d="M355.93 215.21C356.36 215.73 356.97 216.02 357.6 215.99C361.15 215.99 363.34 230.49 356.25 236.87C356.25 236.87 357.69 228.29 355.06 225.37C354.59 224.87 354.19 224.28 353.89 223.64C352.18 219.69 346.42 218.39 342.45 218.73C340.42 218.9 340.24 222.94 337.99 222.37C332.89 221.09 331.26 227.86 332.19 230.54C335.18 226.24 324.92 203.32 347.14 209.03C350.58 209.92 353.56 212.21 355.93 215.21Z" id="aSUmEcaZa"></path><path d="M355.93 215.21C356.36 215.73 356.97 216.02 357.6 215.99C361.15 215.99 363.34 230.49 356.25 236.87C356.25 236.87 357.69 228.29 355.06 225.37C354.59 224.87 354.19 224.28 353.89 223.64C352.18 219.69 346.42 218.39 342.45 218.73C340.42 218.9 340.24 222.94 337.99 222.37C332.89 221.09 331.26 227.86 332.19 230.54C335.18 226.24 324.92 203.32 347.14 209.03C350.58 209.92 353.56 212.21 355.93 215.21Z" id="lzMNEAnQV"></path><path d="M353.49 279.76C352.61 287.23 352.11 291.38 352.01 292.21C351.78 294.08 351.66 295.12 351.64 295.33C351.58 295.82 351.21 296.19 350.78 296.19C349.79 296.19 341.86 296.19 340.86 296.19C340.43 296.19 340.06 295.83 340.01 295.33C339.98 295.13 339.85 294.08 339.63 292.21C339.53 291.38 339.02 287.23 338.12 279.76C337.56 275.2 337.25 272.66 337.19 272.16C337.1 271.42 337.06 271.01 337.04 270.93C336.97 270.39 337.31 269.89 337.78 269.81C337.82 269.81 337.86 269.8 337.9 269.8C339.48 269.8 352.11 269.8 353.69 269.8C354.17 269.8 354.56 270.24 354.56 270.79C354.56 270.84 354.55 270.88 354.55 270.92C354.53 271.09 354.48 271.5 354.41 272.16C354.28 273.17 353.98 275.7 353.49 279.76Z" id="b5pfrKUExc"></path><path d="M353.49 279.76C352.61 287.23 352.11 291.38 352.01 292.21C351.78 294.08 351.66 295.12 351.64 295.33C351.58 295.82 351.21 296.19 350.78 296.19C349.79 296.19 341.86 296.19 340.86 296.19C340.43 296.19 340.06 295.83 340.01 295.33C339.98 295.13 339.85 294.08 339.63 292.21C339.53 291.38 339.02 287.23 338.12 279.76C337.56 275.2 337.25 272.66 337.19 272.16C337.1 271.42 337.06 271.01 337.04 270.93C336.97 270.39 337.31 269.89 337.78 269.81C337.82 269.81 337.86 269.8 337.9 269.8C339.48 269.8 352.11 269.8 353.69 269.8C354.17 269.8 354.56 270.24 354.56 270.79C354.56 270.84 354.55 270.88 354.55 270.92C354.53 271.09 354.48 271.5 354.41 272.16C354.28 273.17 353.98 275.7 353.49 279.76Z" id="b1me2q1LL9"></path><path d="M353.57 267.5C353.57 267.5 353.57 267.5 353.57 267.5C353.57 267.63 353.57 268.67 353.57 268.8C353.57 269.35 353.17 269.8 352.7 269.8C352.7 269.8 352.7 269.8 352.7 269.8C351.32 269.8 340.33 269.8 338.95 269.8C338.47 269.8 338.08 269.35 338.08 268.8C338.08 268.8 338.08 268.8 338.08 268.8C338.08 268.67 338.08 267.63 338.08 267.5C338.08 266.95 338.47 266.5 338.95 266.5C338.95 266.5 338.95 266.5 338.95 266.5C338.95 266.5 351.32 266.5 352.7 266.5C353.17 266.5 353.57 266.95 353.57 267.5Z" id="akf6HR4qY"></path><path d="M353.57 267.5C353.57 267.5 353.57 267.5 353.57 267.5C353.57 267.63 353.57 268.67 353.57 268.8C353.57 269.35 353.17 269.8 352.7 269.8C352.7 269.8 352.7 269.8 352.7 269.8C351.32 269.8 340.33 269.8 338.95 269.8C338.47 269.8 338.08 269.35 338.08 268.8C338.08 268.8 338.08 268.8 338.08 268.8C338.08 268.67 338.08 267.63 338.08 267.5C338.08 266.95 338.47 266.5 338.95 266.5C338.95 266.5 338.95 266.5 338.95 266.5C338.95 266.5 351.32 266.5 352.7 266.5C353.17 266.5 353.57 266.95 353.57 267.5Z" id="b15dcbozBI"></path><path d="M334.98 270.45C334.98 270.45 334.98 270.45 334.98 270.45C334.98 270.45 334.98 270.45 334.98 270.45C334.98 269.67 334.98 269.23 334.98 269.14C334.98 268.6 335.37 268.15 335.85 268.15C335.85 268.15 335.85 268.15 335.85 268.15C342.47 269.08 349.17 269.08 355.79 268.15C356.27 268.15 356.66 268.6 356.66 269.14C356.66 269.27 356.66 270.32 356.66 270.45C356.66 271.01 356.27 271.45 355.79 271.45C349.16 272.28 342.48 272.28 335.85 271.45C335.37 271.45 334.98 271.01 334.98 270.45Z" id="e4gZyHf5ov"></path><path d="M334.98 270.45C334.98 270.45 334.98 270.45 334.98 270.45C334.98 270.45 334.98 270.45 334.98 270.45C334.98 269.67 334.98 269.23 334.98 269.14C334.98 268.6 335.37 268.15 335.85 268.15C335.85 268.15 335.85 268.15 335.85 268.15C342.47 269.08 349.17 269.08 355.79 268.15C356.27 268.15 356.66 268.6 356.66 269.14C356.66 269.27 356.66 270.32 356.66 270.45C356.66 271.01 356.27 271.45 355.79 271.45C349.16 272.28 342.48 272.28 335.85 271.45C335.37 271.45 334.98 271.01 334.98 270.45Z" id="b1KmfTB0XO"></path><path d="M341.67 282.4C341.67 284.77 343.35 286.69 345.42 286.69C347.48 286.69 349.17 284.77 349.17 282.4C349.17 280.04 347.48 278.11 345.42 278.11C343.35 278.11 341.67 280.04 341.67 282.4Z" id="c1gE2Gm7YJ"></path><path d="M341.67 282.4C341.67 284.77 343.35 286.69 345.42 286.69C347.48 286.69 349.17 284.77 349.17 282.4C349.17 280.04 347.48 278.11 345.42 278.11C343.35 278.11 341.67 280.04 341.67 282.4Z" id="b23iqAJkad"></path><path d="M348.92 300.07C348.14 300.16 347.36 300.1 346.61 299.89C345.71 299.65 341.25 298.42 333.21 296.21C333.24 295.39 333.5 288.85 333.53 288.03C341.41 285.95 345.78 284.8 346.66 284.57C350.36 283.59 354.06 286.23 354.91 290.47C354.98 290.78 355.02 291.1 355.05 291.42C355.05 291.42 355.05 291.42 355.05 291.42C355.45 295.74 352.7 299.61 348.92 300.07Z" id="a2kxfPknR8"></path><path d="M348.92 300.07C348.14 300.16 347.36 300.1 346.61 299.89C345.71 299.65 341.25 298.42 333.21 296.21C333.24 295.39 333.5 288.85 333.53 288.03C341.41 285.95 345.78 284.8 346.66 284.57C350.36 283.59 354.06 286.23 354.91 290.47C354.98 290.78 355.02 291.1 355.05 291.42C355.05 291.42 355.05 291.42 355.05 291.42C355.45 295.74 352.7 299.61 348.92 300.07Z" id="bv6vgbTyn"></path><path d="M300.81 298.71C295.85 298.85 291.74 294.37 291.61 288.7C291.6 288.12 291.63 287.56 291.7 286.99C291.7 286.99 291.7 286.99 291.7 286.99C291.99 284.67 292.96 282.54 294.46 280.94C296.16 279.12 309.77 264.55 311.47 262.73C314.63 259.35 318.56 257.07 322.81 256.16C323.21 256.07 325.2 255.64 328.77 254.88C329 256.9 330.17 267 332.28 285.19L312.02 282.52L335.79 285.64L336.96 297.67C314.46 298.32 302.42 298.66 300.81 298.71Z" id="b5sOFUPCR"></path><path d="M300.81 298.71C295.85 298.85 291.74 294.37 291.61 288.7C291.6 288.12 291.63 287.56 291.7 286.99C291.7 286.99 291.7 286.99 291.7 286.99C291.99 284.67 292.96 282.54 294.46 280.94C296.16 279.12 309.77 264.55 311.47 262.73C314.63 259.35 318.56 257.07 322.81 256.16C323.21 256.07 325.2 255.64 328.77 254.88C329 256.9 330.17 267 332.28 285.19L312.02 282.52L335.79 285.64L336.96 297.67C314.46 298.32 302.42 298.66 300.81 298.71Z" id="b7rUBmFxZR"></path><path d="M193.97 383.08C193.97 383.08 193.97 383.08 193.97 383.08C193.97 383.08 193.97 383.08 193.97 383.08C227.42 378.64 260.24 378.64 292.44 383.08C292.44 383.08 292.44 383.08 292.44 383.08C292.44 385.04 291.05 386.63 289.34 386.63C270.89 386.63 206.29 386.63 197.07 386.63C195.36 386.63 193.97 385.04 193.97 383.08Z" id="fqj8GjTWa"></path><path d="M193.97 383.08C193.97 383.08 193.97 383.08 193.97 383.08C193.97 383.08 193.97 383.08 193.97 383.08C227.42 378.64 260.24 378.64 292.44 383.08C292.44 383.08 292.44 383.08 292.44 383.08C292.44 385.04 291.05 386.63 289.34 386.63C270.89 386.63 206.29 386.63 197.07 386.63C195.36 386.63 193.97 385.04 193.97 383.08Z" id="a25Ah176y5"></path><path d="M193.97 383.08L205.38 361.12C205.41 361.06 205.43 361.02 205.43 361.02C205.43 331.96 205.43 315.83 205.43 312.6C205.43 310.13 207.19 308.13 209.34 308.13C209.34 308.13 209.34 308.13 209.34 308.13C216.07 308.13 269.79 308.13 276.51 308.13C278.67 308.13 280.42 310.13 280.42 312.6C280.42 312.6 280.42 312.6 280.42 312.6C280.42 315.85 280.42 332.1 280.42 361.35C281.22 362.81 285.23 370.13 292.44 383.3L193.97 383.08Z" id="b3Wqk8znoB"></path><path d="M193.97 383.08L205.38 361.12C205.41 361.06 205.43 361.02 205.43 361.02C205.43 331.96 205.43 315.83 205.43 312.6C205.43 310.13 207.19 308.13 209.34 308.13C209.34 308.13 209.34 308.13 209.34 308.13C216.07 308.13 269.79 308.13 276.51 308.13C278.67 308.13 280.42 310.13 280.42 312.6C280.42 312.6 280.42 312.6 280.42 312.6C280.42 315.85 280.42 332.1 280.42 361.35C281.22 362.81 285.23 370.13 292.44 383.3L193.97 383.08Z" id="aciAPuAZo"></path><path d="M207.99 312.71C207.99 317.12 207.99 352.44 207.99 356.85C207.99 357.66 208.56 358.3 209.26 358.3C216.05 358.3 270.36 358.3 277.15 358.3C277.85 358.3 278.42 357.66 278.42 356.85C278.42 352.44 278.42 317.12 278.42 312.71C278.42 311.9 277.85 311.25 277.15 311.25C263.57 311.25 222.84 311.25 209.26 311.25C208.56 311.25 207.99 311.9 207.99 312.71Z" id="b2wnB3MYM4"></path><path d="M207.99 312.71C207.99 317.12 207.99 352.44 207.99 356.85C207.99 357.66 208.56 358.3 209.26 358.3C216.05 358.3 270.36 358.3 277.15 358.3C277.85 358.3 278.42 357.66 278.42 356.85C278.42 352.44 278.42 317.12 278.42 312.71C278.42 311.9 277.85 311.25 277.15 311.25C263.57 311.25 222.84 311.25 209.26 311.25C208.56 311.25 207.99 311.9 207.99 312.71Z" id="bbriPSfOR"></path><path d="M209.2 364.5C208.86 365.37 206.04 372.38 205.7 373.25C205.56 373.56 205.69 373.93 205.96 374.08C206.03 374.11 206.11 374.13 206.19 374.13C213.59 374.13 272.74 374.13 280.13 374.13C280.44 374.13 280.68 373.85 280.68 373.51C280.68 373.41 280.66 373.31 280.63 373.23C280.24 372.35 277.18 365.36 276.8 364.49C276.71 364.27 276.52 364.14 276.31 364.14C262.99 364.14 223.03 364.14 209.71 364.14C209.49 364.14 209.29 364.28 209.2 364.5Z" id="a41UetqFAT"></path><path d="M209.2 364.5C208.86 365.37 206.04 372.38 205.7 373.25C205.56 373.56 205.69 373.93 205.96 374.08C206.03 374.11 206.11 374.13 206.19 374.13C213.59 374.13 272.74 374.13 280.13 374.13C280.44 374.13 280.68 373.85 280.68 373.51C280.68 373.41 280.66 373.31 280.63 373.23C280.24 372.35 277.18 365.36 276.8 364.49C276.71 364.27 276.52 364.14 276.31 364.14C262.99 364.14 223.03 364.14 209.71 364.14C209.49 364.14 209.29 364.28 209.2 364.5Z" id="aCPo8ncBH"></path><path d="M242.11 309.58C242.11 310.1 242.47 310.52 242.93 310.52C243.38 310.52 243.75 310.1 243.75 309.58C243.75 309.07 243.38 308.65 242.93 308.65C242.47 308.65 242.11 309.07 242.11 309.58Z" id="a2QFXf44v"></path><path d="M242.11 309.58C242.11 310.1 242.47 310.52 242.93 310.52C243.38 310.52 243.75 310.1 243.75 309.58C243.75 309.07 243.38 308.65 242.93 308.65C242.47 308.65 242.11 309.07 242.11 309.58Z" id="f1xcfHyoy4"></path><path d="M235.13 376.26C235.04 376.63 234.34 379.63 234.26 380.01C234.17 380.34 234.35 380.68 234.63 380.77C234.68 380.79 234.73 380.79 234.78 380.79C236.46 380.79 249.88 380.79 251.56 380.79C251.85 380.79 252.1 380.51 252.1 380.17C252.1 380.1 252.09 380.04 252.07 379.97C251.96 379.59 251.05 376.59 250.93 376.22C250.86 375.97 250.65 375.79 250.42 375.79C247.47 375.79 238.61 375.79 235.66 375.79C235.41 375.79 235.2 375.99 235.13 376.26Z" id="e3vGahBsV"></path><path d="M235.13 376.26C235.04 376.63 234.34 379.63 234.26 380.01C234.17 380.34 234.35 380.68 234.63 380.77C234.68 380.79 234.73 380.79 234.78 380.79C236.46 380.79 249.88 380.79 251.56 380.79C251.85 380.79 252.1 380.51 252.1 380.17C252.1 380.1 252.09 380.04 252.07 379.97C251.96 379.59 251.05 376.59 250.93 376.22C250.86 375.97 250.65 375.79 250.42 375.79C247.47 375.79 238.61 375.79 235.66 375.79C235.41 375.79 235.2 375.99 235.13 376.26Z" id="fZzAhMyBZ"></path><path d="M205.38 361.12L205.44 361.02L205.44 360.29L280.42 360.29L280.42 360.29L280.42 361.12L205.38 361.12Z" id="g7Guw5LBfe"></path><path d="M205.38 361.12L205.44 361.02L205.44 360.29L280.42 360.29L280.42 360.29L280.42 361.12L205.38 361.12Z" id="a4hWamb5un"></path><path d="M177.59 359.04C179.02 359.04 190.46 359.04 191.89 359.04C191.87 358.86 191.85 358.67 191.84 358.45C190.88 345.91 185.39 269.58 191.96 256.52C191.39 257.58 172.48 292.65 173.58 332.51C173.79 341.32 175.08 350.05 177.42 358.45C177.47 358.64 177.53 358.84 177.59 359.04Z" id="cnXm5gO6b"></path><path d="M177.59 359.04C179.02 359.04 190.46 359.04 191.89 359.04C191.87 358.86 191.85 358.67 191.84 358.45C190.88 345.91 185.39 269.58 191.96 256.52C191.39 257.58 172.48 292.65 173.58 332.51C173.79 341.32 175.08 350.05 177.42 358.45C177.47 358.64 177.53 358.84 177.59 359.04Z" id="gKgsyzAfg"></path><path d="M185.76 359.04C185.68 358.86 185.58 358.67 185.48 358.45C183.7 354.79 178.46 343.85 173.58 332.51C168.36 320.32 163.56 307.66 163.96 303.08C163.84 304.12 160.21 335.6 174.66 358.45C174.78 358.64 174.91 358.84 175.03 359.04C176.11 359.04 184.69 359.04 185.76 359.04Z" id="d6s6ExYQ5"></path><path d="M185.76 359.04C185.68 358.86 185.58 358.67 185.48 358.45C183.7 354.79 178.46 343.85 173.58 332.51C168.36 320.32 163.56 307.66 163.96 303.08C163.84 304.12 160.21 335.6 174.66 358.45C174.78 358.64 174.91 358.84 175.03 359.04C176.11 359.04 184.69 359.04 185.76 359.04Z" id="aIWqRAWC9"></path><path d="M84.67 334.91C84.67 334.91 116.41 322.97 145.99 334.91" id="b1ilWa5k0x"></path><path d="M84.67 334.91C84.67 334.91 116.41 322.97 145.99 334.91" id="b3EbMs4Nzz"></path><path d="M251.91 328.87C253.71 328.85 253.72 325.64 251.91 325.65C245.61 325.73 239.33 325.86 233.03 325.96C229.88 326 227.37 326.03 226.74 326.04C224.94 326.06 224.93 329.28 226.74 329.26C233.03 329.18 239.32 329.05 245.61 328.96C248.76 328.91 251.28 328.87 251.91 328.87Z" id="b9z6HAllxO"></path><path d="M251.91 328.87C253.71 328.85 253.72 325.64 251.91 325.65C245.61 325.73 239.33 325.86 233.03 325.96C229.88 326 227.37 326.03 226.74 326.04C224.94 326.06 224.93 329.28 226.74 329.26C233.03 329.18 239.32 329.05 245.61 328.96C248.76 328.91 251.28 328.87 251.91 328.87Z" id="eYPYDifkj"></path><path d="M259.4 336.37C261.2 336.35 261.21 333.13 259.4 333.16C257.7 333.17 249.23 333.28 233.97 333.46C229.63 333.51 227.22 333.53 226.74 333.54C224.94 333.57 224.93 336.78 226.74 336.76C230.13 336.71 238.6 336.62 252.16 336.46C256.5 336.4 258.92 336.38 259.4 336.37Z" id="aeMojmyI8"></path><path d="M259.4 336.37C261.2 336.35 261.21 333.13 259.4 333.16C257.7 333.17 249.23 333.28 233.97 333.46C229.63 333.51 227.22 333.53 226.74 333.54C224.94 333.57 224.93 336.78 226.74 336.76C230.13 336.71 238.6 336.62 252.16 336.46C256.5 336.4 258.92 336.38 259.4 336.37Z" id="b1MCr8si3r"></path><path d="M259.4 343.87C261.2 343.85 261.21 340.63 259.4 340.66C257.7 340.68 249.23 340.77 233.97 340.96C229.63 341.01 227.22 341.04 226.74 341.05C224.94 341.07 224.93 344.28 226.74 344.26C230.13 344.22 238.6 344.12 252.16 343.95C256.5 343.91 258.92 343.88 259.4 343.87Z" id="a55RKIEjYr"></path><path d="M259.4 343.87C261.2 343.85 261.21 340.63 259.4 340.66C257.7 340.68 249.23 340.77 233.97 340.96C229.63 341.01 227.22 341.04 226.74 341.05C224.94 341.07 224.93 344.28 226.74 344.26C230.13 344.22 238.6 344.12 252.16 343.95C256.5 343.91 258.92 343.88 259.4 343.87Z" id="a38kuCmEz"></path></defs><g><g><g><use xlink:href="#gL2GszrKb" opacity="1" fill="#e6e6e6" fill-opacity="1"></use><g><use xlink:href="#gL2GszrKb" opacity="1" fill-opacity="0" stroke="#000000" stroke-width="1" stroke-opacity="0"></use></g></g><g><use xlink:href="#a3PasQb5pd" opacity="1" fill="#000000" fill-opacity="0"></use><g><use xlink:href="#a3PasQb5pd" opacity="1" fill-opacity="0" stroke="#000000" stroke-width="1" stroke-opacity="0"></use></g></g><g><use xlink:href="#b3JxJuJGzV" opacity="1" fill="#e6e6e6" fill-opacity="1"></use><g><use xlink:href="#b3JxJuJGzV" opacity="1" fill-opacity="0" stroke="#000000" stroke-width="1" stroke-opacity="0"></use></g></g><g><use xlink:href="#e3XHPkdNa3" opacity="1" fill="#000000" fill-opacity="0"></use><g><use xlink:href="#e3XHPkdNa3" opacity="1" fill-opacity="0" stroke="#000000" stroke-width="1" stroke-opacity="0"></use></g></g><g><use xlink:href="#b1hWgmJGKu" opacity="1" fill="#e6e6e6" fill-opacity="1"></use><g><use xlink:href="#b1hWgmJGKu" opacity="1" fill-opacity="0" stroke="#000000" stroke-width="1" stroke-opacity="0"></use></g></g><g><use xlink:href="#blkYqUDnL" opacity="1" fill="#000000" fill-opacity="0"></use><g><use xlink:href="#blkYqUDnL" opacity="1" fill-opacity="0" stroke="#000000" stroke-width="1" stroke-opacity="0"></use></g></g><g><use xlink:href="#e2bDa5wt7o" opacity="1" fill="#ffb8b8" fill-opacity="1"></use><g><use xlink:href="#e2bDa5wt7o" opacity="1" fill-opacity="0" stroke="#000000" stroke-width="1" stroke-opacity="0"></use></g></g><g><use xlink:href="#f5Ym9pwJ30" opacity="1" fill="#000000" fill-opacity="0"></use><g><use xlink:href="#f5Ym9pwJ30" opacity="1" fill-opacity="0" stroke="#000000" stroke-width="1" stroke-opacity="0"></use></g></g><g><use xlink:href="#c36pWMN8Gx" opacity="1" fill="#2f2e41" fill-opacity="1"></use><g><use xlink:href="#c36pWMN8Gx" opacity="1" fill-opacity="0" stroke="#000000" stroke-width="1" stroke-opacity="0"></use></g></g><g><use xlink:href="#a1g3OPzvit" opacity="1" fill="#000000" fill-opacity="0"></use><g><use xlink:href="#a1g3OPzvit" opacity="1" fill-opacity="0" stroke="#000000" stroke-width="1" stroke-opacity="0"></use></g></g><g><use xlink:href="#b1PKg5mkaq" opacity="1" fill="#ffb8b8" fill-opacity="1"></use><g><use xlink:href="#b1PKg5mkaq" opacity="1" fill-opacity="0" stroke="#000000" stroke-width="1" stroke-opacity="0"></use></g></g><g><use xlink:href="#b5OUvqwW0" opacity="1" fill="#000000" fill-opacity="0"></use><g><use xlink:href="#b5OUvqwW0" opacity="1" fill-opacity="0" stroke="#000000" stroke-width="1" stroke-opacity="0"></use></g></g><g><use xlink:href="#d1RFFeJjyE" opacity="1" fill="#ffb8b8" fill-opacity="1"></use><g><use xlink:href="#d1RFFeJjyE" opacity="1" fill-opacity="0" stroke="#000000" stroke-width="1" stroke-opacity="0"></use></g></g><g><use xlink:href="#h2NeE2mSwx" opacity="1" fill="#000000" fill-opacity="0"></use><g><use xlink:href="#h2NeE2mSwx" opacity="1" fill-opacity="0" stroke="#000000" stroke-width="1" stroke-opacity="0"></use></g></g><g><use xlink:href="#d3yKoJ32Cu" opacity="1" fill="#ffb8b8" fill-opacity="1"></use><g><use xlink:href="#d3yKoJ32Cu" opacity="1" fill-opacity="0" stroke="#000000" stroke-width="1" stroke-opacity="0"></use></g></g><g><use xlink:href="#bbgQyYdoG" opacity="1" fill="#000000" fill-opacity="0"></use><g><use xlink:href="#bbgQyYdoG" opacity="1" fill-opacity="0" stroke="#000000" stroke-width="1" stroke-opacity="0"></use></g></g><g><use xlink:href="#aCIFOWMpf" opacity="1" fill="#2f2e41" fill-opacity="1"></use><g><use xlink:href="#aCIFOWMpf" opacity="1" fill-opacity="0" stroke="#000000" stroke-width="1" stroke-opacity="0"></use></g></g><g><use xlink:href="#a1TLJGd8tX" opacity="1" fill="#000000" fill-opacity="0"></use><g><use xlink:href="#a1TLJGd8tX" opacity="1" fill-opacity="0" stroke="#000000" stroke-width="1" stroke-opacity="0"></use></g></g><g><use xlink:href="#i1mHR5Sl4h" opacity="1" fill="#2f2e41" fill-opacity="1"></use><g><use xlink:href="#i1mHR5Sl4h" opacity="1" fill-opacity="0" stroke="#000000" stroke-width="1" stroke-opacity="0"></use></g></g><g><use xlink:href="#e1iKot0SBC" opacity="1" fill="#000000" fill-opacity="0"></use><g><use xlink:href="#e1iKot0SBC" opacity="1" fill-opacity="0" stroke="#000000" stroke-width="1" stroke-opacity="0"></use></g></g><g><use xlink:href="#atEVwgNlv" opacity="1" fill="#673ab7" fill-opacity="1"></use><g><use xlink:href="#atEVwgNlv" opacity="1" fill-opacity="0" stroke="#000000" stroke-width="1" stroke-opacity="0"></use></g></g><g><use xlink:href="#b1NjB9w43q" opacity="1" fill="#000000" fill-opacity="0"></use><g><use xlink:href="#b1NjB9w43q" opacity="1" fill-opacity="0" stroke="#000000" stroke-width="1" stroke-opacity="0"></use></g></g><g><use xlink:href="#eCmuicNIH" opacity="1" fill="#000000" fill-opacity="1"></use><g><use xlink:href="#eCmuicNIH" opacity="1" fill-opacity="0" stroke="#000000" stroke-width="1" stroke-opacity="0"></use></g></g><g><use xlink:href="#f5gwIk9jn" opacity="1" fill="#000000" fill-opacity="0"></use><g><use xlink:href="#f5gwIk9jn" opacity="1" fill-opacity="0" stroke="#000000" stroke-width="1" stroke-opacity="0"></use></g></g><g><use xlink:href="#e2mHMPdG" opacity="1" fill="#ffb8b8" fill-opacity="1"></use><g><use xlink:href="#e2mHMPdG" opacity="1" fill-opacity="0" stroke="#000000" stroke-width="1" stroke-opacity="0"></use></g></g><g><use xlink:href="#a3LG9fncz0" opacity="1" fill="#000000" fill-opacity="0"></use><g><use xlink:href="#a3LG9fncz0" opacity="1" fill-opacity="0" stroke="#000000" stroke-width="1" stroke-opacity="0"></use></g></g><g><use xlink:href="#bLSh9yFLj" opacity="1" fill="#673ab7" fill-opacity="1"></use><g><use xlink:href="#bLSh9yFLj" opacity="1" fill-opacity="0" stroke="#000000" stroke-width="1" stroke-opacity="0"></use></g></g><g><use xlink:href="#gqK8OleVW" opacity="1" fill="#000000" fill-opacity="0"></use><g><use xlink:href="#gqK8OleVW" opacity="1" fill-opacity="0" stroke="#000000" stroke-width="1" stroke-opacity="0"></use></g></g><g><use xlink:href="#a2rtezlJXr" opacity="1" fill="#000000" fill-opacity="1"></use><g><use xlink:href="#a2rtezlJXr" opacity="1" fill-opacity="0" stroke="#000000" stroke-width="1" stroke-opacity="0"></use></g></g><g><use xlink:href="#a4pBqeypeb" opacity="1" fill="#000000" fill-opacity="0"></use><g><use xlink:href="#a4pBqeypeb" opacity="1" fill-opacity="0" stroke="#000000" stroke-width="1" stroke-opacity="0"></use></g></g><g><use xlink:href="#aSUmEcaZa" opacity="1" fill="#2f2e41" fill-opacity="1"></use><g><use xlink:href="#aSUmEcaZa" opacity="1" fill-opacity="0" stroke="#000000" stroke-width="1" stroke-opacity="0"></use></g></g><g><use xlink:href="#lzMNEAnQV" opacity="1" fill="#000000" fill-opacity="0"></use><g><use xlink:href="#lzMNEAnQV" opacity="1" fill-opacity="0" stroke="#000000" stroke-width="1" stroke-opacity="0"></use></g></g><g><use xlink:href="#b5pfrKUExc" opacity="1" fill="#e6e6e6" fill-opacity="1"></use><g><use xlink:href="#b5pfrKUExc" opacity="1" fill-opacity="0" stroke="#000000" stroke-width="1" stroke-opacity="0"></use></g></g><g><use xlink:href="#b1me2q1LL9" opacity="1" fill="#000000" fill-opacity="0"></use><g><use xlink:href="#b1me2q1LL9" opacity="1" fill-opacity="0" stroke="#000000" stroke-width="1" stroke-opacity="0"></use></g></g><g><use xlink:href="#akf6HR4qY" opacity="1" fill="#3f3d56" fill-opacity="1"></use><g><use xlink:href="#akf6HR4qY" opacity="1" fill-opacity="0" stroke="#000000" stroke-width="1" stroke-opacity="0"></use></g></g><g><use xlink:href="#b15dcbozBI" opacity="1" fill="#000000" fill-opacity="0"></use><g><use xlink:href="#b15dcbozBI" opacity="1" fill-opacity="0" stroke="#000000" stroke-width="1" stroke-opacity="0"></use></g></g><g><use xlink:href="#e4gZyHf5ov" opacity="1" fill="#3f3d56" fill-opacity="1"></use><g><use xlink:href="#e4gZyHf5ov" opacity="1" fill-opacity="0" stroke="#000000" stroke-width="1" stroke-opacity="0"></use></g></g><g><use xlink:href="#b1KmfTB0XO" opacity="1" fill="#000000" fill-opacity="0"></use><g><use xlink:href="#b1KmfTB0XO" opacity="1" fill-opacity="0" stroke="#000000" stroke-width="1" stroke-opacity="0"></use></g></g><g><use xlink:href="#c1gE2Gm7YJ" opacity="1" fill="#ffffff" fill-opacity="1"></use><g><use xlink:href="#c1gE2Gm7YJ" opacity="1" fill-opacity="0" stroke="#000000" stroke-width="1" stroke-opacity="0"></use></g></g><g><use xlink:href="#b23iqAJkad" opacity="1" fill="#000000" fill-opacity="0"></use><g><use xlink:href="#b23iqAJkad" opacity="1" fill-opacity="0" stroke="#000000" stroke-width="1" stroke-opacity="0"></use></g></g><g><use xlink:href="#a2kxfPknR8" opacity="1" fill="#ffb8b8" fill-opacity="1"></use><g><use xlink:href="#a2kxfPknR8" opacity="1" fill-opacity="0" stroke="#000000" stroke-width="1" stroke-opacity="0"></use></g></g><g><use xlink:href="#bv6vgbTyn" opacity="1" fill="#000000" fill-opacity="0"></use><g><use xlink:href="#bv6vgbTyn" opacity="1" fill-opacity="0" stroke="#000000" stroke-width="1" stroke-opacity="0"></use></g></g><g><use xlink:href="#b5sOFUPCR" opacity="1" fill="#673ab7" fill-opacity="1"></use><g><use xlink:href="#b5sOFUPCR" opacity="1" fill-opacity="0" stroke="#000000" stroke-width="1" stroke-opacity="0"></use></g></g><g><use xlink:href="#b7rUBmFxZR" opacity="1" fill="#000000" fill-opacity="0"></use><g><use xlink:href="#b7rUBmFxZR" opacity="1" fill-opacity="0" stroke="#000000" stroke-width="1" stroke-opacity="0"></use></g></g><g><use xlink:href="#fqj8GjTWa" opacity="1" fill="#2f2e41" fill-opacity="1"></use><g><use xlink:href="#fqj8GjTWa" opacity="1" fill-opacity="0" stroke="#000000" stroke-width="1" stroke-opacity="0"></use></g></g><g><use xlink:href="#a25Ah176y5" opacity="1" fill="#000000" fill-opacity="0"></use><g><use xlink:href="#a25Ah176y5" opacity="1" fill-opacity="0" stroke="#000000" stroke-width="1" stroke-opacity="0"></use></g></g><g><use xlink:href="#b3Wqk8znoB" opacity="1" fill="#3f3d56" fill-opacity="1"></use><g><use xlink:href="#b3Wqk8znoB" opacity="1" fill-opacity="0" stroke="#000000" stroke-width="1" stroke-opacity="0"></use></g></g><g><use xlink:href="#aciAPuAZo" opacity="1" fill="#000000" fill-opacity="0"></use><g><use xlink:href="#aciAPuAZo" opacity="1" fill-opacity="0" stroke="#000000" stroke-width="1" stroke-opacity="0"></use></g></g><g><use xlink:href="#b2wnB3MYM4" opacity="1" fill="#ffffff" fill-opacity="1"></use><g><use xlink:href="#b2wnB3MYM4" opacity="1" fill-opacity="0" stroke="#000000" stroke-width="1" stroke-opacity="0"></use></g></g><g><use xlink:href="#bbriPSfOR" opacity="1" fill="#000000" fill-opacity="0"></use><g><use xlink:href="#bbriPSfOR" opacity="1" fill-opacity="0" stroke="#000000" stroke-width="1" stroke-opacity="0"></use></g></g><g><use xlink:href="#a41UetqFAT" opacity="1" fill="#2f2e41" fill-opacity="1"></use><g><use xlink:href="#a41UetqFAT" opacity="1" fill-opacity="0" stroke="#000000" stroke-width="1" stroke-opacity="0"></use></g></g><g><use xlink:href="#aCPo8ncBH" opacity="1" fill="#000000" fill-opacity="0"></use><g><use xlink:href="#aCPo8ncBH" opacity="1" fill-opacity="0" stroke="#000000" stroke-width="1" stroke-opacity="0"></use></g></g><g><use xlink:href="#a2QFXf44v" opacity="1" fill="#ffffff" fill-opacity="1"></use><g><use xlink:href="#a2QFXf44v" opacity="1" fill-opacity="0" stroke="#000000" stroke-width="1" stroke-opacity="0"></use></g></g><g><use xlink:href="#f1xcfHyoy4" opacity="1" fill="#000000" fill-opacity="0"></use><g><use xlink:href="#f1xcfHyoy4" opacity="1" fill-opacity="0" stroke="#000000" stroke-width="1" stroke-opacity="0"></use></g></g><g><use xlink:href="#e3vGahBsV" opacity="1" fill="#2f2e41" fill-opacity="1"></use><g><use xlink:href="#e3vGahBsV" opacity="1" fill-opacity="0" stroke="#000000" stroke-width="1" stroke-opacity="0"></use></g></g><g><use xlink:href="#fZzAhMyBZ" opacity="1" fill="#000000" fill-opacity="0"></use><g><use xlink:href="#fZzAhMyBZ" opacity="1" fill-opacity="0" stroke="#000000" stroke-width="1" stroke-opacity="0"></use></g></g><g><use xlink:href="#g7Guw5LBfe" opacity="1" fill="#2f2e41" fill-opacity="1"></use><g><use xlink:href="#g7Guw5LBfe" opacity="1" fill-opacity="0" stroke="#000000" stroke-width="1" stroke-opacity="0"></use></g></g><g><use xlink:href="#a4hWamb5un" opacity="1" fill="#000000" fill-opacity="0"></use><g><use xlink:href="#a4hWamb5un" opacity="1" fill-opacity="0" stroke="#000000" stroke-width="1" stroke-opacity="0"></use></g></g><g><use xlink:href="#cnXm5gO6b" opacity="1" fill="#e6e6e6" fill-opacity="1"></use><g><use xlink:href="#cnXm5gO6b" opacity="1" fill-opacity="0" stroke="#000000" stroke-width="1" stroke-opacity="0"></use></g></g><g><use xlink:href="#gKgsyzAfg" opacity="1" fill="#000000" fill-opacity="0"></use><g><use xlink:href="#gKgsyzAfg" opacity="1" fill-opacity="0" stroke="#000000" stroke-width="1" stroke-opacity="0"></use></g></g><g><use xlink:href="#d6s6ExYQ5" opacity="1" fill="#e6e6e6" fill-opacity="1"></use><g><use xlink:href="#d6s6ExYQ5" opacity="1" fill-opacity="0" stroke="#000000" stroke-width="1" stroke-opacity="0"></use></g></g><g><use xlink:href="#aIWqRAWC9" opacity="1" fill="#000000" fill-opacity="0"></use><g><use xlink:href="#aIWqRAWC9" opacity="1" fill-opacity="0" stroke="#000000" stroke-width="1" stroke-opacity="0"></use></g></g><g><use xlink:href="#b1ilWa5k0x" opacity="1" fill="#e6e6e6" fill-opacity="1"></use><g><use xlink:href="#b1ilWa5k0x" opacity="1" fill-opacity="0" stroke="#000000" stroke-width="1" stroke-opacity="0"></use></g></g><g><use xlink:href="#b3EbMs4Nzz" opacity="1" fill="#000000" fill-opacity="0"></use><g><use xlink:href="#b3EbMs4Nzz" opacity="1" fill-opacity="0" stroke="#000000" stroke-width="1" stroke-opacity="0"></use></g></g><g><use xlink:href="#b9z6HAllxO" opacity="1" fill="#673ab7" fill-opacity="1"></use><g><use xlink:href="#b9z6HAllxO" opacity="1" fill-opacity="0" stroke="#000000" stroke-width="1" stroke-opacity="0"></use></g></g><g><use xlink:href="#eYPYDifkj" opacity="1" fill="#000000" fill-opacity="0"></use><g><use xlink:href="#eYPYDifkj" opacity="1" fill-opacity="0" stroke="#000000" stroke-width="1" stroke-opacity="0"></use></g></g><g><use xlink:href="#aeMojmyI8" opacity="1" fill="#673ab7" fill-opacity="1"></use><g><use xlink:href="#aeMojmyI8" opacity="1" fill-opacity="0" stroke="#000000" stroke-width="1" stroke-opacity="0"></use></g></g><g><use xlink:href="#b1MCr8si3r" opacity="1" fill="#000000" fill-opacity="0"></use><g><use xlink:href="#b1MCr8si3r" opacity="1" fill-opacity="0" stroke="#000000" stroke-width="1" stroke-opacity="0"></use></g></g><g><use xlink:href="#a55RKIEjYr" opacity="1" fill="#673ab7" fill-opacity="1"></use><g><use xlink:href="#a55RKIEjYr" opacity="1" fill-opacity="0" stroke="#000000" stroke-width="1" stroke-opacity="0"></use></g></g><g><use xlink:href="#a38kuCmEz" opacity="1" fill="#000000" fill-opacity="0"></use><g><use xlink:href="#a38kuCmEz" opacity="1" fill-opacity="0" stroke="#000000" stroke-width="1" stroke-opacity="0"></use></g></g></g></g></svg>