<?xml version="1.0" encoding="UTF-8" standalone="no"?>
<!DOCTYPE svg PUBLIC "-//W3C//DTD SVG 1.1//EN" "http://www.w3.org/Graphics/SVG/1.1/DTD/svg11.dtd">
<svg version="1.1" xmlns="http://www.w3.org/2000/svg" xmlns:xlink="http://www.w3.org/1999/xlink" preserveAspectRatio="xMidYMid meet" viewBox="0 0 640 640" width="535" height="526"><defs><path d="M43.01 47.05C19.29 47.05 0.06 69.05 0.06 96.19C0.06 123.32 19.29 145.32 43.01 145.32C66.73 145.32 85.96 123.32 85.96 96.19C85.96 69.05 66.73 47.05 43.01 47.05Z" id="c4ff2BXUTY"></path><path d="M494.72 436.95C494.67 437.13 494.62 437.31 494.56 437.5C493.21 437.5 482.35 437.5 480.99 437.5C481 437.33 481.02 437.15 481.03 436.95C481.94 425.04 487.16 352.58 480.92 340.19C481.46 341.19 499.41 374.49 498.36 412.32C498.16 420.68 496.94 428.97 494.72 436.95Z" id="bzh2BVsPu"></path><path d="M496.99 437.5C495.97 437.5 487.82 437.5 486.8 437.5C486.88 437.34 486.97 437.16 487.07 436.95C488.76 433.47 493.74 423.08 498.36 412.32C503.33 400.74 507.88 388.73 507.5 384.39C507.62 385.37 511.06 415.25 497.34 436.95C497.23 437.13 497.11 437.32 496.99 437.5Z" id="f1RO1XWU0i"></path><path d="M535.06 436.44C535.06 436.44 535.06 436.44 535.06 436.44C535.06 437.32 535.06 437.8 535.06 437.9C535.06 437.9 535.06 437.9 535.06 437.9C300.83 437.9 170.7 437.9 144.67 437.9C144.67 437.9 144.67 437.9 144.67 437.9C144.67 437.02 144.67 436.54 144.67 436.44C144.67 436.44 144.67 436.44 144.67 436.44C378.9 436.44 509.03 436.44 535.06 436.44Z" id="b6NkDFCwo"></path><path d="M396.45 464.16L450.02 448.43C446.33 435.74 444.27 428.69 443.86 427.28C448.15 413.19 455.69 406.28 469.46 413.18C471.83 414.86 490.78 428.33 493.15 430.01C497.84 433.34 500.57 439.33 500.27 445.64C500.27 445.64 500.27 445.64 500.27 445.64C499.97 451.97 496.67 457.61 491.67 460.33C465.15 474.71 431.35 480.21 394.55 482.06C394.81 479.67 395.44 473.71 396.45 464.16Z" id="e2yo3gAdfV"></path><path d="M381.28 484.77C371.97 486.95 366.79 488.15 365.76 488.4C362.13 489.24 358.59 486.56 357.85 482.41C357.78 482.01 357.74 481.61 357.72 481.2C357.72 481.2 357.72 481.2 357.72 481.2C357.63 478.68 358.63 476.27 360.39 474.76C362.82 472.66 382.27 455.89 384.71 453.79C389.01 450.08 395.04 450.5 398.93 454.78C399.53 455.44 404.38 460.78 404.98 461.45C400.65 464.52 397.43 469.14 395.5 475.55C399.67 478.17 400.46 482.15 397.87 487.48L381.28 484.77Z" id="a8UP2QmYb"></path><path d="M413.72 264.45C405.25 264.45 398.38 272.31 398.38 282.01C398.38 291.7 405.25 299.56 413.72 299.56C422.2 299.56 429.07 291.7 429.07 282.01C429.07 272.31 422.2 264.45 413.72 264.45Z" id="c5W3IlJJlf"></path><path d="M403.33 333.17C406.12 317.12 407.51 302.51 403.33 293.58C405.53 293.28 423.17 290.89 425.37 290.59C424.28 297.46 429.85 306.65 437.7 316.63C430.82 319.94 406.76 331.52 403.33 333.17Z" id="b5j7g2k9e"></path><path d="M379.38 481.52C371.7 480.87 367.44 480.5 366.58 480.43C358.74 443.02 354.73 407.66 356.48 375.39C356.99 365.6 364.18 358.02 372.75 358.23C372.75 358.23 372.75 358.23 372.75 358.23C376.71 358.34 380.5 360.13 383.37 363.25C385.03 365.05 398.27 379.47 399.93 381.27C407.31 389.25 413.04 399.01 416.7 409.84C421.39 423.89 419.7 431.77 408.51 430.43C401.52 429.54 395.09 425.62 390.53 419.49C389.72 418.42 385.69 413.06 378.44 403.41L379.38 481.52Z" id="b13XKX8x6E"></path><path d="M369.47 525.97C363.44 525.52 358.86 519.56 359.26 512.66C359.32 511.56 359.51 510.47 359.82 509.43C359.98 508.87 360.82 506.07 362.32 501.04C363.45 488.35 364.09 481.3 364.21 479.89C367.13 473.07 371.27 474.09 376.06 479.35C379.11 479.01 379.77 475.52 379.38 470.67C380.34 472.15 388.03 483.99 388.99 485.47C390.67 488.05 390.99 491.47 389.82 494.39C388.85 496.82 381.12 516.24 380.15 518.67C378.26 523.4 374.01 526.31 369.47 525.97C369.47 525.97 369.47 525.97 369.47 525.97Z" id="a1LTqhvFMp"></path><path d="M490.56 428.09C473.02 439.48 467.52 439.81 450.02 447.89C448.51 446.91 436.37 439.1 434.85 438.13C417.04 445.66 404.54 435.33 391 419.96C399.86 403.07 395.94 381.14 401.43 381.44C405.81 383.02 427.69 390.88 467.09 405.04L469.94 413.18C480.94 421.13 487.81 426.1 490.56 428.09Z" id="b9HOoMgJXd"></path><path d="M469.46 410.46C446.28 421.94 421.31 409.79 400.01 383.07C398.6 376.55 387.31 324.4 385.9 317.89C385.22 314.98 386.73 312 389.27 311.23C389.37 311.2 389.46 311.18 389.56 311.15C390.65 310.9 396.11 309.66 405.93 307.41L413.99 322.05L430.11 305.78C440.38 309.62 446.09 311.76 447.23 312.18C451.87 313.92 455.29 318.43 456.14 323.93C458.8 341.24 466.8 393.16 469.46 410.46Z" id="mmXfyEDDr"></path><path d="M432.64 465.73C428.32 463.84 426.15 458.31 427.79 453.36C428.13 452.35 428.62 451.41 429.23 450.58C429.95 449.61 433.57 444.73 440.07 435.96L447.65 440.84C445.31 451.77 444.01 457.84 443.75 459.06C442.65 464.19 438.11 467.34 433.62 466.08C433.29 465.98 432.96 465.87 432.64 465.73C432.64 465.73 432.64 465.73 432.64 465.73Z" id="b8HN5V6av"></path><path d="M432.64 463.56C428.32 461.67 426.15 456.14 427.79 451.2C428.13 450.18 428.62 449.24 429.23 448.41C429.95 447.44 433.57 442.56 440.07 433.79L447.65 438.67C445.31 449.6 444.01 455.67 443.75 456.89C442.65 462.02 438.11 465.17 433.62 463.91C433.29 463.81 432.96 463.7 432.64 463.56C432.64 463.56 432.64 463.56 432.64 463.56Z" id="a2hsN32lNY"></path><path d="M438.17 434.33L454.77 383.89L448.6 312.83C451.98 315.24 453.85 316.58 454.22 316.85C460.32 321.21 464.59 328.24 466.04 336.3C466.95 341.38 474.24 382.06 475.15 387.14C471.16 410.57 464.51 431.19 449.55 443.01C448.03 441.85 444.24 438.96 438.17 434.33Z" id="b21Lf5wZUT"></path><path d="M448.37 395.01L443.69 414.04L442.68 362.46L442.68 362.46L448.37 395.01Z" id="h2uuTRuU4T"></path><path d="M416.9 254.33C421.09 255.41 424.71 258.2 427.59 261.85C428.12 262.49 428.86 262.84 429.63 262.8C433.95 262.8 436.61 280.45 427.98 288.21C427.98 288.21 429.74 277.77 426.54 274.21C425.96 273.6 425.48 272.89 425.11 272.11C423.03 267.3 416.02 265.72 411.19 266.13C408.72 266.34 408.51 271.26 405.77 270.57C399.56 269.01 397.58 277.24 398.71 280.5C402.35 275.27 389.87 247.39 416.9 254.33Z" id="g1NqxbjhtS"></path><path d="M425.74 331.14L424.63 340.39L422.83 355.54C422.55 357.82 422.4 359.08 422.37 359.34C422.3 359.93 421.85 360.38 421.33 360.38C420.12 360.38 410.47 360.38 409.26 360.38C408.74 360.38 408.29 359.94 408.22 359.34C408.19 359.09 408.03 357.82 407.76 355.54L405.92 340.39L404.79 331.14C404.69 330.24 404.63 329.75 404.61 329.65C404.53 328.99 404.94 328.38 405.51 328.28C405.56 328.28 405.61 328.27 405.66 328.27C407.58 328.27 422.95 328.27 424.87 328.27C425.45 328.27 425.93 328.81 425.93 329.48C425.93 329.54 425.92 329.59 425.92 329.64C425.89 329.84 425.83 330.34 425.74 331.14Z" id="anAzXljyQ"></path><path d="M423.66 324.26C424.24 324.26 424.72 324.8 424.72 325.47C424.72 325.47 424.72 325.47 424.72 325.47C424.72 325.63 424.72 326.9 424.72 327.06C424.72 327.73 424.24 328.27 423.66 328.27C423.66 328.27 423.66 328.27 423.66 328.27C421.99 328.27 408.61 328.27 406.93 328.27C406.35 328.27 405.88 327.73 405.88 327.06C405.88 327.06 405.88 327.06 405.88 327.06C405.88 326.9 405.88 325.63 405.88 325.47C405.88 324.8 406.35 324.26 406.93 324.26C406.93 324.26 406.93 324.26 406.93 324.26C406.93 324.26 421.99 324.26 423.66 324.26Z" id="cLrTRHdyk"></path><path d="M403.16 330.28C402.58 330.28 402.11 329.74 402.11 329.07C402.11 329.07 402.11 329.07 402.11 329.07C402.11 329.07 402.11 329.07 402.11 329.07C402.11 328.11 402.11 327.58 402.11 327.47C402.11 326.81 402.58 326.27 403.16 326.27C403.16 326.27 403.16 326.27 403.16 326.27C411.22 327.4 419.37 327.4 427.43 326.27C428.01 326.27 428.48 326.81 428.48 327.47C428.48 327.63 428.48 328.91 428.48 329.07C428.48 329.74 428.01 330.28 427.43 330.28C419.36 331.29 411.23 331.29 403.16 330.28Z" id="aMS9EvbId"></path><path d="M414.81 338.39C412.29 338.39 410.25 340.73 410.25 343.61C410.25 346.49 412.29 348.83 414.81 348.83C417.32 348.83 419.37 346.49 419.37 343.61C419.37 340.73 417.32 338.39 414.81 338.39Z" id="c1mMXVhBl"></path><path d="M426.53 354.58C427.01 359.84 423.67 364.55 419.07 365.1C418.12 365.21 417.17 365.14 416.25 364.89C415.16 364.59 409.73 363.1 399.95 360.41L400.34 350.46C409.93 347.93 415.25 346.52 416.32 346.24C420.82 345.05 425.32 348.26 426.36 353.42C426.44 353.8 426.49 354.19 426.53 354.58C426.53 354.58 426.53 354.58 426.53 354.58Z" id="b1TfrQ7zJv"></path><path d="M404.51 362.19C378.12 362.94 363.46 363.36 360.53 363.45C354.5 363.62 349.49 358.17 349.34 351.27C349.32 350.57 349.36 349.88 349.45 349.19C349.45 349.19 349.45 349.19 349.45 349.19C349.8 346.37 350.98 343.77 352.8 341.83C354.87 339.61 371.43 321.88 373.5 319.67C377.34 315.56 382.13 312.79 387.3 311.68C387.78 311.57 390.2 311.05 394.55 310.12L398.82 347L374.17 343.75L403.09 347.55L404.51 362.19Z" id="azR61feGp"></path><path d="M234.3 470.42C232.22 470.42 230.53 468.49 230.53 466.11C230.53 466.11 230.53 466.11 230.53 466.11C230.53 466.11 230.53 466.11 230.53 466.11C271.23 460.7 311.17 460.7 350.34 466.11C350.34 466.11 350.34 466.11 350.34 466.11C350.34 468.49 348.65 470.42 346.57 470.42C324.12 470.42 245.53 470.42 234.3 470.42Z" id="aeyUjQz0z"></path><path d="M350.34 466.37L230.53 466.11L244.42 439.38L244.48 439.26C244.48 403.91 244.48 384.28 244.48 380.35C244.48 377.34 246.62 374.91 249.24 374.91C249.24 374.91 249.24 374.91 249.24 374.91C257.42 374.91 322.79 374.91 330.96 374.91C333.59 374.91 335.72 377.34 335.72 380.35C335.72 380.35 335.72 380.35 335.72 380.35C335.72 384.3 335.72 404.07 335.72 439.66L350.34 466.37Z" id="bd0110AoY"></path><path d="M249.14 378.71C248.28 378.71 247.59 379.5 247.59 380.48C247.59 385.85 247.59 428.82 247.59 434.19C247.59 435.17 248.28 435.96 249.14 435.96C257.4 435.96 323.48 435.96 331.74 435.96C332.59 435.96 333.29 435.17 333.29 434.19C333.29 428.82 333.29 385.85 333.29 380.48C333.29 379.5 332.59 378.71 331.74 378.71C315.22 378.71 265.66 378.71 249.14 378.71Z" id="b1otBf5Tiv"></path><path d="M249.68 443.06C249.42 443.06 249.18 443.23 249.07 443.5C248.65 444.56 245.22 453.08 244.8 454.14C244.64 454.52 244.79 454.97 245.12 455.15C245.21 455.19 245.3 455.22 245.4 455.22C254.4 455.22 326.37 455.22 335.37 455.22C335.74 455.22 336.04 454.88 336.04 454.46C336.04 454.34 336.01 454.22 335.97 454.12C335.5 453.05 331.78 444.54 331.32 443.48C331.2 443.22 330.97 443.06 330.72 443.06C314.51 443.06 265.89 443.06 249.68 443.06Z" id="ayUlDIi3z"></path><path d="M290.1 375.54C289.55 375.54 289.11 376.05 289.11 376.68C289.11 377.31 289.55 377.82 290.1 377.82C290.65 377.82 291.1 377.31 291.1 376.68C291.1 376.05 290.65 375.54 290.1 375.54Z" id="f3g87yG8ee"></path><path d="M281.26 457.24C280.96 457.24 280.7 457.48 280.62 457.81C280.51 458.26 279.65 461.91 279.55 462.37C279.45 462.77 279.66 463.19 280.01 463.3C280.07 463.32 280.13 463.32 280.19 463.32C282.23 463.32 298.56 463.32 300.6 463.32C300.96 463.32 301.26 462.98 301.26 462.57C301.26 462.48 301.25 462.4 301.22 462.32C301.09 461.86 299.98 458.21 299.84 457.76C299.75 457.45 299.5 457.24 299.22 457.24C295.63 457.24 284.85 457.24 281.26 457.24Z" id="a4tv473Eb"></path><path d="M335.72 439.38L244.42 439.38L244.49 439.26L244.49 438.37L335.72 438.37L335.72 438.37L335.72 439.38Z" id="bnG2F15V"></path><path d="M210.4 436.14C210.46 436.37 210.53 436.61 210.6 436.85C212.34 436.85 226.26 436.85 228 436.85C227.98 436.63 227.96 436.4 227.94 436.14C226.78 420.88 220.09 328 228.09 312.12C227.39 313.41 204.39 356.08 205.73 404.57C205.98 415.29 207.55 425.92 210.4 436.14Z" id="a5akCBj7j"></path><path d="M207.49 436.85C208.8 436.85 219.24 436.85 220.55 436.85C220.45 436.64 220.33 436.41 220.2 436.14C218.04 431.68 211.66 418.37 205.73 404.57C199.37 389.74 193.53 374.34 194.02 368.77C193.87 370.03 189.46 408.34 207.04 436.14C207.19 436.37 207.34 436.61 207.49 436.85Z" id="a1erQFjARl"></path><path d="M243.56 107.73C238.06 107.04 235.8 110.47 234.88 113.18C230.58 111.14 225.91 113.81 225.91 113.81C227.32 114.4 238.65 119.1 240.06 119.69C239.35 117.51 238.11 115.61 236.48 114.2C237.9 112.91 242.85 108.38 243.56 107.73Z" id="b4ar8UDgn6"></path><path d="M456.63 74.41C451.14 73.72 448.88 77.15 447.95 79.86C443.66 77.82 438.99 80.49 438.99 80.49C440.4 81.08 451.73 85.78 453.14 86.37C452.43 84.19 451.18 82.29 449.56 80.88C450.97 79.59 455.92 75.06 456.63 74.41Z" id="aIaUwqXZf"></path><path d="M415.9 160.31C410.4 159.62 408.14 163.05 407.22 165.76C402.92 163.72 398.25 166.4 398.25 166.4C399.66 166.98 410.99 171.69 412.4 172.28C411.69 170.09 410.45 168.19 408.82 166.79C410.24 165.49 415.19 160.96 415.9 160.31Z" id="d2NGcspR51"></path><path d="M170.85 134.36C183.62 215.4 165.83 286.9 131.12 294.06C96.4 301.23 57.9 241.33 45.13 160.29C32.36 79.25 50.15 7.74 84.87 0.58C119.58 -6.58 158.08 53.31 170.85 134.36Z" id="c87AMtI2"></path><path d="M112.53 172.56C119.09 199.47 122.63 221.48 123.75 226.92C128.41 254.36 130.4 276.64 131.14 282.17C133.86 309.93 134.28 332.31 134.63 337.88C135.4 365.8 134.25 388.14 134.21 393.73C134.06 397.15 133.92 399.88 133.88 400.57C133.76 402.9 136.94 402.9 137.06 400.57C138.5 372.55 137.87 350.07 137.96 344.46C137.42 316.54 135.23 294.29 134.93 288.72C132.43 260.82 128.7 238.76 128.01 233.2C123.58 205.6 118.31 183.93 117.23 178.46C110.88 151.35 104.09 130.25 102.63 124.89C101.63 121.66 100.8 119.09 100.59 118.45C99.89 116.27 96.82 117.21 97.53 119.41C105.96 145.63 111.03 167.25 112.53 172.56Z" id="i1i3CGv1OY"></path><path d="M133.48 152.43C135.86 146.39 137.18 143.03 137.44 142.36C137.86 141.49 137.61 140.4 136.87 139.88C136.11 139.38 135.15 139.67 134.7 140.53C133.76 142.91 129.07 154.82 120.63 176.26C118.25 182.31 116.93 185.67 116.67 186.34C116.25 187.21 116.5 188.3 117.24 188.82C117.99 189.32 118.96 189.03 119.41 188.17C119.41 188.17 124.1 176.26 133.48 152.43Z" id="b3lLJwrsvu"></path><path d="M90.44 198.83C85.02 196.5 82 195.21 81.4 194.95C80.55 194.69 79.69 195.26 79.45 196.22C79.23 197.18 79.72 198.17 80.56 198.45C82.69 199.37 93.39 203.96 112.63 212.21C118.06 214.54 121.07 215.83 121.67 216.09C122.52 216.35 123.39 215.78 123.63 214.82C123.84 213.86 123.35 212.87 122.52 212.59C122.52 212.59 111.82 208 90.44 198.83Z" id="bdPBZrYZC"></path><path d="M97.54 407.5C97.54 407.5 136.17 392.97 172.16 407.5" id="b3k1RlpLxM"></path><path d="M293.37 400.25C297.2 400.19 300.26 400.15 301.03 400.14C303.22 400.12 303.23 396.21 301.03 396.23C293.37 396.32 285.72 396.48 278.06 396.6C274.23 396.66 271.17 396.69 270.4 396.7C268.21 396.73 268.2 400.64 270.4 400.62C278.06 400.52 285.71 400.37 293.37 400.25Z" id="dOVG7PCr1"></path><path d="M301.34 409.38C306.62 409.31 309.56 409.28 310.14 409.27C312.34 409.25 312.35 405.33 310.14 405.36C308.08 405.38 297.77 405.51 279.2 405.73C273.92 405.79 270.99 405.82 270.4 405.83C268.21 405.86 268.2 409.77 270.4 409.74C274.53 409.69 284.84 409.57 301.34 409.38Z" id="a1XpKB2FJH"></path><path d="M301.34 418.5C306.62 418.44 309.56 418.41 310.14 418.4C312.34 418.37 312.35 414.46 310.14 414.49C308.08 414.51 297.77 414.63 279.2 414.86C273.92 414.92 270.99 414.95 270.4 414.96C268.21 414.99 268.2 418.9 270.4 418.87C274.53 418.82 284.84 418.7 301.34 418.5Z" id="c1LPXdF9P4"></path></defs><g><g><g><use xlink:href="#c4ff2BXUTY" opacity="1" fill="#ff6584" fill-opacity="1"></use><g><use xlink:href="#c4ff2BXUTY" opacity="1" fill-opacity="0" stroke="#000000" stroke-width="1" stroke-opacity="0"></use></g></g><g><use xlink:href="#bzh2BVsPu" opacity="1" fill="#e6e6e6" fill-opacity="1"></use><g><use xlink:href="#bzh2BVsPu" opacity="1" fill-opacity="0" stroke="#000000" stroke-width="1" stroke-opacity="0"></use></g></g><g><use xlink:href="#f1RO1XWU0i" opacity="1" fill="#e6e6e6" fill-opacity="1"></use><g><use xlink:href="#f1RO1XWU0i" opacity="1" fill-opacity="0" stroke="#000000" stroke-width="1" stroke-opacity="0"></use></g></g><g><use xlink:href="#b6NkDFCwo" opacity="1" fill="#e6e6e6" fill-opacity="1"></use><g><use xlink:href="#b6NkDFCwo" opacity="1" fill-opacity="0" stroke="#000000" stroke-width="1" stroke-opacity="0"></use></g></g><g><use xlink:href="#e2yo3gAdfV" opacity="1" fill="#ffb8b8" fill-opacity="1"></use><g><use xlink:href="#e2yo3gAdfV" opacity="1" fill-opacity="0" stroke="#000000" stroke-width="1" stroke-opacity="0"></use></g></g><g><use xlink:href="#a8UP2QmYb" opacity="1" fill="#2f2e41" fill-opacity="1"></use><g><use xlink:href="#a8UP2QmYb" opacity="1" fill-opacity="0" stroke="#000000" stroke-width="1" stroke-opacity="0"></use></g></g><g><use xlink:href="#c5W3IlJJlf" opacity="1" fill="#ffb8b8" fill-opacity="1"></use><g><use xlink:href="#c5W3IlJJlf" opacity="1" fill-opacity="0" stroke="#000000" stroke-width="1" stroke-opacity="0"></use></g></g><g><use xlink:href="#b5j7g2k9e" opacity="1" fill="#ffb8b8" fill-opacity="1"></use><g><use xlink:href="#b5j7g2k9e" opacity="1" fill-opacity="0" stroke="#000000" stroke-width="1" stroke-opacity="0"></use></g></g><g><use xlink:href="#b13XKX8x6E" opacity="1" fill="#ffb8b8" fill-opacity="1"></use><g><use xlink:href="#b13XKX8x6E" opacity="1" fill-opacity="0" stroke="#000000" stroke-width="1" stroke-opacity="0"></use></g></g><g><use xlink:href="#a1LTqhvFMp" opacity="1" fill="#2f2e41" fill-opacity="1"></use><g><use xlink:href="#a1LTqhvFMp" opacity="1" fill-opacity="0" stroke="#000000" stroke-width="1" stroke-opacity="0"></use></g></g><g><use xlink:href="#b9HOoMgJXd" opacity="1" fill="#2f2e41" fill-opacity="1"></use><g><use xlink:href="#b9HOoMgJXd" opacity="1" fill-opacity="0" stroke="#000000" stroke-width="1" stroke-opacity="0"></use></g></g><g><use xlink:href="#mmXfyEDDr" opacity="1" fill="#673ab7" fill-opacity="1"></use><g><use xlink:href="#mmXfyEDDr" opacity="1" fill-opacity="0" stroke="#000000" stroke-width="1" stroke-opacity="0"></use></g></g><g><use xlink:href="#b8HN5V6av" opacity="1" fill="#000000" fill-opacity="1"></use><g><use xlink:href="#b8HN5V6av" opacity="1" fill-opacity="0" stroke="#000000" stroke-width="1" stroke-opacity="0"></use></g></g><g><use xlink:href="#a2hsN32lNY" opacity="1" fill="#ffb8b8" fill-opacity="1"></use><g><use xlink:href="#a2hsN32lNY" opacity="1" fill-opacity="0" stroke="#000000" stroke-width="1" stroke-opacity="0"></use></g></g><g><use xlink:href="#b21Lf5wZUT" opacity="1" fill="#673ab7" fill-opacity="1"></use><g><use xlink:href="#b21Lf5wZUT" opacity="1" fill-opacity="0" stroke="#000000" stroke-width="1" stroke-opacity="0"></use></g></g><g><use xlink:href="#h2uuTRuU4T" opacity="1" fill="#000000" fill-opacity="1"></use><g><use xlink:href="#h2uuTRuU4T" opacity="1" fill-opacity="0" stroke="#000000" stroke-width="1" stroke-opacity="0"></use></g></g><g><use xlink:href="#g1NqxbjhtS" opacity="1" fill="#2f2e41" fill-opacity="1"></use><g><use xlink:href="#g1NqxbjhtS" opacity="1" fill-opacity="0" stroke="#000000" stroke-width="1" stroke-opacity="0"></use></g></g><g><use xlink:href="#anAzXljyQ" opacity="1" fill="#e6e6e6" fill-opacity="1"></use><g><use xlink:href="#anAzXljyQ" opacity="1" fill-opacity="0" stroke="#000000" stroke-width="1" stroke-opacity="0"></use></g></g><g><use xlink:href="#cLrTRHdyk" opacity="1" fill="#3f3d56" fill-opacity="1"></use><g><use xlink:href="#cLrTRHdyk" opacity="1" fill-opacity="0" stroke="#000000" stroke-width="1" stroke-opacity="0"></use></g></g><g><use xlink:href="#aMS9EvbId" opacity="1" fill="#3f3d56" fill-opacity="1"></use><g><use xlink:href="#aMS9EvbId" opacity="1" fill-opacity="0" stroke="#000000" stroke-width="1" stroke-opacity="0"></use></g></g><g><use xlink:href="#c1mMXVhBl" opacity="1" fill="#ffffff" fill-opacity="1"></use><g><use xlink:href="#c1mMXVhBl" opacity="1" fill-opacity="0" stroke="#000000" stroke-width="1" stroke-opacity="0"></use></g></g><g><use xlink:href="#b1TfrQ7zJv" opacity="1" fill="#ffb8b8" fill-opacity="1"></use><g><use xlink:href="#b1TfrQ7zJv" opacity="1" fill-opacity="0" stroke="#000000" stroke-width="1" stroke-opacity="0"></use></g></g><g><use xlink:href="#azR61feGp" opacity="1" fill="#673ab7" fill-opacity="1"></use><g><use xlink:href="#azR61feGp" opacity="1" fill-opacity="0" stroke="#000000" stroke-width="1" stroke-opacity="0"></use></g></g><g><use xlink:href="#aeyUjQz0z" opacity="1" fill="#2f2e41" fill-opacity="1"></use><g><use xlink:href="#aeyUjQz0z" opacity="1" fill-opacity="0" stroke="#000000" stroke-width="1" stroke-opacity="0"></use></g></g><g><use xlink:href="#bd0110AoY" opacity="1" fill="#3f3d56" fill-opacity="1"></use><g><use xlink:href="#bd0110AoY" opacity="1" fill-opacity="0" stroke="#000000" stroke-width="1" stroke-opacity="0"></use></g></g><g><use xlink:href="#b1otBf5Tiv" opacity="1" fill="#ffffff" fill-opacity="1"></use><g><use xlink:href="#b1otBf5Tiv" opacity="1" fill-opacity="0" stroke="#000000" stroke-width="1" stroke-opacity="0"></use></g></g><g><use xlink:href="#ayUlDIi3z" opacity="1" fill="#2f2e41" fill-opacity="1"></use><g><use xlink:href="#ayUlDIi3z" opacity="1" fill-opacity="0" stroke="#000000" stroke-width="1" stroke-opacity="0"></use></g></g><g><use xlink:href="#f3g87yG8ee" opacity="1" fill="#ffffff" fill-opacity="1"></use><g><use xlink:href="#f3g87yG8ee" opacity="1" fill-opacity="0" stroke="#000000" stroke-width="1" stroke-opacity="0"></use></g></g><g><use xlink:href="#a4tv473Eb" opacity="1" fill="#2f2e41" fill-opacity="1"></use><g><use xlink:href="#a4tv473Eb" opacity="1" fill-opacity="0" stroke="#000000" stroke-width="1" stroke-opacity="0"></use></g></g><g><use xlink:href="#bnG2F15V" opacity="1" fill="#2f2e41" fill-opacity="1"></use><g><use xlink:href="#bnG2F15V" opacity="1" fill-opacity="0" stroke="#000000" stroke-width="1" stroke-opacity="0"></use></g></g><g><use xlink:href="#a5akCBj7j" opacity="1" fill="#e6e6e6" fill-opacity="1"></use><g><use xlink:href="#a5akCBj7j" opacity="1" fill-opacity="0" stroke="#000000" stroke-width="1" stroke-opacity="0"></use></g></g><g><use xlink:href="#a1erQFjARl" opacity="1" fill="#e6e6e6" fill-opacity="1"></use><g><use xlink:href="#a1erQFjARl" opacity="1" fill-opacity="0" stroke="#000000" stroke-width="1" stroke-opacity="0"></use></g></g><g><use xlink:href="#b4ar8UDgn6" opacity="1" fill="#3f3d56" fill-opacity="1"></use><g><use xlink:href="#b4ar8UDgn6" opacity="1" fill-opacity="0" stroke="#000000" stroke-width="1" stroke-opacity="0"></use></g></g><g><use xlink:href="#aIaUwqXZf" opacity="1" fill="#3f3d56" fill-opacity="1"></use><g><use xlink:href="#aIaUwqXZf" opacity="1" fill-opacity="0" stroke="#000000" stroke-width="1" stroke-opacity="0"></use></g></g><g><use xlink:href="#d2NGcspR51" opacity="1" fill="#3f3d56" fill-opacity="1"></use><g><use xlink:href="#d2NGcspR51" opacity="1" fill-opacity="0" stroke="#000000" stroke-width="1" stroke-opacity="0"></use></g></g><g><use xlink:href="#c87AMtI2" opacity="1" fill="#e6e6e6" fill-opacity="1"></use><g><use xlink:href="#c87AMtI2" opacity="1" fill-opacity="0" stroke="#000000" stroke-width="1" stroke-opacity="0"></use></g></g><g><use xlink:href="#i1i3CGv1OY" opacity="1" fill="#3f3d56" fill-opacity="1"></use><g><use xlink:href="#i1i3CGv1OY" opacity="1" fill-opacity="0" stroke="#000000" stroke-width="1" stroke-opacity="0"></use></g></g><g><use xlink:href="#b3lLJwrsvu" opacity="1" fill="#3f3d56" fill-opacity="1"></use><g><use xlink:href="#b3lLJwrsvu" opacity="1" fill-opacity="0" stroke="#000000" stroke-width="1" stroke-opacity="0"></use></g></g><g><use xlink:href="#bdPBZrYZC" opacity="1" fill="#3f3d56" fill-opacity="1"></use><g><use xlink:href="#bdPBZrYZC" opacity="1" fill-opacity="0" stroke="#000000" stroke-width="1" stroke-opacity="0"></use></g></g><g><use xlink:href="#b3k1RlpLxM" opacity="1" fill="#e6e6e6" fill-opacity="1"></use><g><use xlink:href="#b3k1RlpLxM" opacity="1" fill-opacity="0" stroke="#000000" stroke-width="1" stroke-opacity="0"></use></g></g><g><use xlink:href="#dOVG7PCr1" opacity="1" fill="#673ab7" fill-opacity="1"></use><g><use xlink:href="#dOVG7PCr1" opacity="1" fill-opacity="0" stroke="#000000" stroke-width="1" stroke-opacity="0"></use></g></g><g><use xlink:href="#a1XpKB2FJH" opacity="1" fill="#673ab7" fill-opacity="1"></use><g><use xlink:href="#a1XpKB2FJH" opacity="1" fill-opacity="0" stroke="#000000" stroke-width="1" stroke-opacity="0"></use></g></g><g><use xlink:href="#c1LPXdF9P4" opacity="1" fill="#673ab7" fill-opacity="1"></use><g><use xlink:href="#c1LPXdF9P4" opacity="1" fill-opacity="0" stroke="#000000" stroke-width="1" stroke-opacity="0"></use></g></g></g></g></svg>